<svg id="Layer_1" data-name="Layer 1" xmlns="http://www.w3.org/2000/svg" viewBox="0 0 400 118"><defs><style>.cls-1{isolation:isolate;}.cls-2{fill:#fff;}</style></defs><title>logo</title><g id="WATCHWORKS" class="cls-1"><g class="cls-1"><path class="cls-2" d="M32.23,106l4.7-13.68-3.3-.51c.09-2.19.13-3.72.18-5.91H48.14v6.56c-2.42,0-2.89,0-3.31,0L36,116.8H30.46L24,100.9l-6.37,15.9H12.14L3.3,92.48c-.42,0-.88,0-3.3,0V85.87H14.28l.23,6-3.3.46L15.91,106l4.88-13.26-3.63-.88c.09-2.19.14-3.77.19-6H30.79c0,2.19.09,3.77.18,6l-3.62.88Z"/><path class="cls-2" d="M68.06,85.41,80.15,110.2c.42,0,.89,0,3.31,0v6.56H70.06c0-2.18-.09-3.77-.18-6l2.83-.47L71,106.85H57.78L56,110.38l2.83.42c-.09,2.19-.14,3.82-.18,6H45.27v-6.56c2.42,0,2.89,0,3.31,0L60.67,85.41Zm-.14,14.93c-1.11-2.24-2.14-4.61-3.21-6.84H64c-1.07,2.23-2.1,4.6-3.21,6.84Z"/><path class="cls-2" d="M115.17,85.87v9.86h-6.7V92.48h-6.32v17.76h3.72v6.56H91.73v-6.56h3.72V92.48H89.12v3.25H82.43V85.87Z"/><path class="cls-2" d="M144.1,87.08l.66-1.21h5.81V96.76h-6.19l-.32-2c-2-2.51-5.35-3.21-8.28-3.21-6,0-9.86,3.49-9.86,9.49,0,6.41,4.6,9.9,10.65,9.9a9.05,9.05,0,0,0,9.12-7.21l5.53,2.51c-.88,8.61-8.65,11.58-15.58,11.58-9.91,0-17-7.11-17-16.78,0-10.52,7.58-16.1,17.31-16.1A14.47,14.47,0,0,1,144.1,87.08Z"/><path class="cls-2" d="M191.64,85.87v6.61h-3.3v17.76h3.3v6.56H177.46v-6.09l4.18-.47v-6h-16v6l4.14.47v6.09H155.6v-6.56h3.3V92.48h-3.3V85.87h14.14V92l-4.14.47v5h16v-5L177.46,92V85.87Z"/><path class="cls-2" d="M228.53,106l4.7-13.68-3.3-.51c.09-2.19.14-3.72.18-5.91h14.33v6.56c-2.42,0-2.89,0-3.3,0L232.3,116.8h-5.54l-6.41-15.9L214,116.8h-5.54L199.6,92.48c-.41,0-.88,0-3.3,0V85.87h14.28l.23,6-3.3.46,4.7,13.68,4.88-13.26-3.63-.88c.1-2.19.14-3.77.19-6h13.44c0,2.19.09,3.77.19,6l-3.63.88Z"/><path class="cls-2" d="M247.3,101.45c0-10.23,6.51-16.74,16.37-16.74s16.56,6.61,16.56,16.42c0,10.23-6.56,16.74-16.42,16.74S247.3,111.27,247.3,101.45Zm16.37-10.32c-5.77,0-9.35,3.58-9.35,9.67,0,6.47,3.54,10.65,9.44,10.65s9.44-3.58,9.44-9.67C273.2,95.31,269.58,91.13,263.67,91.13Z"/><path class="cls-2" d="M305.66,104.06h-11v6.18h4.19v6.56H284.64v-6.56c2.14,0,2.75,0,3.31,0V92.39c-1,0-2,.09-3.31.09V85.55c22.74,0,23.12,0,23.49,0,7,0,11.49,3.86,11.49,9.21,0,4.37-2.51,7.58-6.61,8.37l1.68,5.77a2.56,2.56,0,0,0,2.6,2,4.1,4.1,0,0,0,2.14-.61v6.56a16.07,16.07,0,0,1-4.88.93c-3.72,0-5.82-2-6.75-5.44Zm-11-5.86h12.42c2.79,0,4.19-1.35,4.19-3.16s-1.35-3-4-3l-12.61.19Z"/><path class="cls-2" d="M349.07,99.22c6.13,9.3,10.83,11.26,13,11.26a2.12,2.12,0,0,0,1.07-.24v6.56a13.35,13.35,0,0,1-4.05.79c-4.27,0-8.13-3.39-16.51-14.37l-7.48,4.56v2.46h3.72v6.56H325.11v-6.56h3.26V92.48h-3.26V85.87h13.68v6.61h-3.72v8.37L349,92.48,346,92V85.87h17v6.61h-4l-9.81,6.65Z"/><path class="cls-2" d="M392.84,85.41h5.77c0,3.67,0,6.14,0,9.77h-6.18L392,92.71c-1.11-.7-4.88-1.39-8.42-1.39s-7.07.74-7.07,3c0,6.51,23.49-.7,23.49,12.61,0,8.65-8.56,11.06-15.44,11.06a19.22,19.22,0,0,1-9.4-2.23v1.07h-6.74v-11c2.23,0,4.09,0,6,0l.79,3a16.39,16.39,0,0,0,8.61,2.18c2.74,0,8.79-.18,8.79-3.49,0-6.65-24,1.49-24-12.51,0-7.9,9.45-9.86,15.3-9.86a19,19,0,0,1,8.24,1.54Z"/></g></g><path class="cls-2" d="M311.58.87,311.07,0q-3.88,2.05-7.75,4.16a6.7,6.7,0,0,0-11.73,4.47,6.78,6.78,0,0,0,.28,1.81l-10.57,5.8L251.8,32.93C242,38.53,231.74,43.42,222.55,50A190.84,190.84,0,0,0,196.4,71.39a69.44,69.44,0,0,0-15.49-12.78c-5.57-3.67-12.06-5.56-18.16-8.22l-18.17-7.68a6.13,6.13,0,0,0,.1-1,6.72,6.72,0,0,0-12.21-3.88q-3.34-1.34-6.72-2.6l-.45.87c2,1.36,4.08,2.68,6.13,4a7.1,7.1,0,0,0-.21,1.61A6.7,6.7,0,0,0,142.14,47l17,10.38c5.71,3.41,11,7.57,17.26,10a69.93,69.93,0,0,0,19.73,5.17l.23-.43.25.41A191.7,191.7,0,0,0,227.72,58.3c10-5.35,18.86-12.4,28.22-18.73l27.94-19.14c3.27-2.31,6.54-4.6,9.81-6.9A6.72,6.72,0,0,0,304.47,6Q308,3.43,311.58.87Z"/></svg>